PathFileType	4	(X/Y/Z)	/Users/mathieubourgeois/Desktop/Analyse/Traitement/Sujet_02/Transformed_Static_Sujet_02_Tpose.trc
DataRate	CameraRate	NumFrames	NumMarkers	Units	OrigDataRate	OrigDataStartFrame	OrigNumFrames
120.000000	120.000000	4	36	mm	120.000000	154	308
Frame#	Time	RFHD			RANE			STRN			LANI			LKNE			T10			RHUM			RWRB			C7			LFWT			LTOE			RTOE			LWRA			LBWT			RBWT			RFWT			LKNI			RKNI			RKNE			LANE			RANI			LHEE			RHEE			LHUM			LRAD			RRAD			RWRA			LWRB			LFHD			LBHD			RBHD			RSHO			LSHO			CLAV			LCAR			RCAR			
		X1	Y1	Z1	X2	Y2	Z2	X3	Y3	Z3	X4	Y4	Z4	X5	Y5	Z5	X6	Y6	Z6	X7	Y7	Z7	X8	Y8	Z8	X9	Y9	Z9	X10	Y10	Z10	X11	Y11	Z11	X12	Y12	Z12	X13	Y13	Z13	X14	Y14	Z14	X15	Y15	Z15	X16	Y16	Z16	X17	Y17	Z17	X18	Y18	Z18	X19	Y19	Z19	X20	Y20	Z20	X21	Y21	Z21	X22	Y22	Z22	X23	Y23	Z23	X24	Y24	Z24	X25	Y25	Z25	X26	Y26	Z26	X27	Y27	Z27	X28	Y28	Z28	X29	Y29	Z29	X30	Y30	Z30	X31	Y31	Z31	X32	Y32	Z32	X33	Y33	Z33	X34	Y34	Z34	X35	Y35	Z35	X36	Y36	Z36	

155	1.283333333333333	-155.8695526123047	1796.27685546875	376.2582702636718	-226.0751647949219	101.9807662963867	237.4706115722656	-42.16526031494146	1413.799682617188	424.2433166503905	76.72019958496091	120.4489135742188	269.6346435546875	155.315200805664	557.5758056640625	245.501220703125	-46.33309555053713	1380.757202148438	174.990249633789	-500.8157653808594	1509.029296875	240.3322906494139	-778.895263671875	1589.945190429688	261.0596618652341	-48.22856521606448	1620.83642578125	224.7062988281249	89.64573669433588	1109.987182617188	406.2843017578124	172.9454803466796	59.122184753418	457.3107299804688	-252.4846191406251	59.8677673339844	459.5195617675781	712.2703247070312	1492.36474609375	314.5316772460938	14.3688106536865	1144.162841796875	224.1326904296874	-106.9101943969727	1146.475830078125	226.5065155029296	-187.6109008789063	1121.282958984375	403.9674987792968	61.64764022827145	517.2913818359375	278.8627624511718	-132.5757293701172	527.57568359375	290.6075134277343	-223.1584167480469	580.0603637695312	253.4730834960937	160.1886596679687	101.6914825439453	229.719223022461	-145.3913879394532	119.8260803222656	278.9593811035156	105.5702667236328	70.48745727539064	177.3993072509766	-161.9499969482422	64.59327697753908	186.6893005371093	429.8977661132812	1465.182983398438	321.7083435058593	438.0008239746093	1519.08984375	273.2984619140624	-504.2885131835938	1466.019409179688	307.0864868164061	-774.8468017578125	1530.196044921875	231.6967163085936	707.3018188476562	1558.631103515625	342.6374206542969	-8.1919612884522	1796.3056640625	416.4781799316405	28.10516738891598	1746.812866210938	278.2734374999999	-132.4676513671875	1744.23388671875	251.5318908691405	-212.5695190429688	1596.618041992188	261.3872985839843	121.9102172851562	1615.078491210938	284.5650939941405	-31.9476642608643	1588.637084960938	380.177032470703	817.7316284179688	1527.139038085938	304.4957275390625	-884.6004028320312	1560.406494140625	214.843063354492	
156	1.291666666666667	-152.9799957275391	1799.354370117188	376.6318359374999	-226.0798034667969	101.9530029296875	237.4685974121093	-42.15940475463872	1413.7578125	424.1536560058593	76.74008941650388	120.434440612793	269.6178588867188	155.3035278320312	557.5567626953125	245.4866333007812	-46.31366348266604	1380.74365234375	174.892593383789	-500.7969360351563	1508.99609375	240.3239440917967	-778.9104614257812	1589.762817382812	261.1404724121091	-48.19599151611331	1620.806884765625	224.6390838623046	89.62915802001947	1109.973388671875	406.2292175292968	172.9395294189453	59.11766433715823	457.3156127929688	-252.482650756836	59.86003875732425	459.5187988281249	712.2887573242188	1492.260009765625	314.5650329589844	14.36373805999753	1144.135620117188	224.0682373046874	-106.899284362793	1146.464965820312	226.4136352539062	-187.6232147216797	1121.283569335938	403.8988342285156	61.63023757934567	517.2752685546875	278.8540039062499	-132.5785369873047	527.5474853515625	290.6002502441406	-223.158187866211	580.0443725585938	253.4621887207031	160.2055969238281	101.6678695678711	229.7148132324219	-145.3797302246094	119.8119735717774	278.9583129882812	105.5715103149414	70.4832000732422	177.3923950195312	-161.9390106201172	64.57453918457033	186.6655883789062	429.8805847167968	1465.079711914062	321.7180786132812	438.0299072265624	1519.048950195312	273.3241577148437	-504.2379150390626	1465.942138671875	307.0578002929686	-774.861572265625	1530.0595703125	231.7348785400389	707.301513671875	1558.460205078125	342.8060302734375	-8.088067054748587	1796.276123046875	416.4674072265624	28.17383766174313	1746.764404296875	278.2048950195311	-132.4397277832032	1744.257568359375	251.5061035156249	-212.5391845703125	1596.593139648438	261.3028869628905	121.9343948364258	1615.044189453125	284.5352478027343	-31.92675209045415	1588.596313476562	380.1021423339843	817.7565307617188	1527.060180664062	304.6231384277344	-884.619873046875	1560.235107421875	214.8827362060545	
157	1.3	-152.4104003906251	1799.786499023438	376.6683654785155	-226.0778350830078	101.9517669677735	237.4741516113281	-42.15147781372075	1413.69970703125	424.0838012695311	76.7337951660156	120.4192123413086	269.6195068359375	155.2857971191406	557.54443359375	245.4616088867188	-46.28300476074221	1380.733276367188	174.7921752929687	-500.7838134765626	1508.947998046875	240.2896423339842	-778.9165649414062	1589.606811523438	261.1984558105466	-48.15666198730472	1620.80126953125	224.586456298828	89.61257171630854	1109.954956054688	406.1838989257812	172.9289245605468	59.10488128662112	457.3130798339844	-252.475814819336	59.85786056518558	459.5136413574218	712.2640380859375	1492.181396484375	314.6074829101562	14.3489542007446	1144.107788085938	224.0140533447265	-106.8964309692383	1146.470458984375	226.3286743164062	-187.6183013916016	1121.299560546875	403.8385925292968	61.61765289306637	517.2619018554688	278.8403015136718	-132.5850830078125	527.5486450195312	290.6040039062499	-223.164291381836	580.0187377929688	253.4525756835937	160.2118377685547	101.6637725830078	229.7319488525391	-145.3984680175782	119.7916030883789	278.9601745605469	105.5799789428711	70.46266937255861	177.4023132324219	-161.9435424804688	64.57956695556642	186.6609802246093	429.8905944824218	1465.015258789062	321.6697692871093	438.0573120117187	1519.028076171875	273.3483886718749	-504.2073364257813	1465.87158203125	307.0477294921873	-774.840087890625	1529.949829101562	231.7420959472655	707.3291625976562	1558.315673828125	342.9750061035156	-8.013424873352102	1796.15673828125	416.426300048828	28.22642326354977	1746.7353515625	278.1329345703124	-132.3843383789063	1744.272705078125	251.4786529541014	-212.5145111083985	1596.567138671875	261.2357788085936	121.9728393554687	1615.02392578125	284.5283813476561	-31.91268920898442	1588.541748046875	380.0482482910155	817.7907104492188	1526.96728515625	304.7641296386719	-884.6138305664062	1560.083374023438	214.9070892333982	
158	1.308333333333333	-152.7822570800782	1799.223388671875	376.5771179199218	-226.0758972167969	101.9585494995117	237.4713592529297	-42.14672470092778	1413.6416015625	424.0067443847655	76.74388122558591	120.4204177856445	269.6263122558594	155.2809295654297	557.5453491210938	245.4285888671875	-46.23101043701174	1380.73828125	174.6978607177734	-500.7705078125001	1508.91455078125	240.2692718505858	-778.9107055664062	1589.46923828125	261.2568359374998	-48.11760711669925	1620.814697265625	224.5355529785155	89.60931396484371	1109.937866210938	406.1195068359374	172.9325714111328	59.10871505737308	457.3146057128906	-252.4661254882813	59.85495758056643	459.5016479492187	712.2916259765625	1492.150634765625	314.6068115234375	14.34519004821775	1144.08544921875	223.9277954101562	-106.911865234375	1146.452758789062	226.2543182373046	-187.6137237548829	1121.322021484375	403.7360229492187	61.60711669921871	517.2794189453125	278.8078002929687	-132.6074371337891	527.5300903320312	290.5960693359374	-223.1772155761719	580.0172119140625	253.4403686523437	160.2292785644531	101.6627349853516	229.7211303710938	-145.3897094726563	119.7903213500977	278.9627380371094	105.5916290283203	70.45679473876955	177.4019165039062	-161.9461669921875	64.5854949951172	186.6573638916015	429.8942871093749	1464.960205078125	321.6279602050781	438.1116027832031	1519.033935546875	273.3666076660156	-504.1613159179688	1465.793823242188	307.0046386718748	-774.8145751953125	1529.861450195312	231.744430541992	707.3607177734375	1558.1845703125	343.1405334472656	-7.910853385925344	1796.081665039062	416.389434814453	28.27544975280758	1746.681030273438	278.0655822753905	-132.3113708496094	1744.2890625	251.4497833251952	-212.4997863769532	1596.547485351562	261.1774902343749	122.0136489868164	1615.021728515625	284.5297546386718	-31.90637588500981	1588.4853515625	379.982696533203	817.8115234375	1526.89794921875	304.8945007324219	-884.6021728515625	1559.942260742188	214.9435729980467	
